<svg width="19" height="26" viewBox="0 0 19 26" fill="none" xmlns="http://www.w3.org/2000/svg">
<g clip-path="url(#clip0_17_124)">
<path d="M11.7854 13.1605C11.5764 14.08 12.1616 15.0414 13.123 15.2504C14.0843 15.4594 15.0457 14.8742 15.2547 13.9546L17.8044 3.00349C18.0134 2.08393 17.4282 1.12257 16.4668 0.913576C15.5055 0.704585 14.5441 1.28976 14.3351 2.20932L11.7854 13.1605Z" fill="url(#paint0_linear_17_124)" stroke="white" stroke-width="0.5"/>
<path d="M15.0875 14.2464C15.0875 14.2464 11.451 10.6517 5.01409 12.4491C5.01409 12.4491 1.21045 13.1178 1.41944 15.0405C1.41944 15.0405 1.29405 19.8055 2.92418 22.6478C4.93893 26.0968 12.2087 26.6854 15.8297 22.6478C16.6408 21.7433 16.564 20.9305 17 19.5C17 18 17 14.5 15.0875 14.2464Z" fill="url(#paint1_linear_17_124)" stroke="white" stroke-width="0.5"/>
<path d="M8.60699 13.7868C8.77419 14.7482 9.73555 15.3333 10.6969 15.1661C11.6583 14.9989 12.327 14.0794 12.1598 13.118L10.0699 2.08328C9.90274 1.12192 8.94138 0.536748 7.98002 0.703941C7.01866 0.871134 6.34989 1.7907 6.55888 2.75206L8.60699 13.7868Z" fill="url(#paint2_linear_17_124)"/>
<path d="M8.60699 13.7868C8.77419 14.7482 9.73555 15.3333 10.6969 15.1661C11.6583 14.9989 12.327 14.0794 12.1598 13.118L10.0699 2.08328C9.90274 1.12192 8.94138 0.536748 7.98002 0.703941C7.01866 0.871134 6.34989 1.7907 6.55888 2.75206L8.60699 13.7868" stroke="white" stroke-width="0.5"/>
<path d="M1.2121 13.244C1.0867 12.2827 1.79727 11.4049 2.80043 11.2795H2.84223C3.80359 11.1959 4.72315 11.8647 4.80675 12.8678L5.09933 15.5847C5.22473 16.5461 4.51416 17.4238 3.511 17.5492H3.4692C2.46605 17.6328 1.58828 16.9641 1.50469 15.9609L1.2121 13.244Z" fill="url(#paint3_linear_17_124)"/>
<path d="M1.2121 13.244C1.0867 12.2827 1.79727 11.4049 2.80043 11.2795H2.84223C3.80359 11.1959 4.72315 11.8647 4.80675 12.8678L5.09933 15.5847C5.22473 16.5461 4.51416 17.4238 3.511 17.5492H3.4692C2.46604 17.6328 1.58828 16.9641 1.50469 15.9609L1.2121 13.244" stroke="white" stroke-width="0.5"/>
<path d="M4.59393 11.2795C4.46854 10.3182 5.17911 9.44042 6.18227 9.31502H6.22406C7.22722 9.23143 8.10498 9.9002 8.18858 10.9034L8.48117 13.6202C8.60656 14.5816 7.89599 15.4594 6.89284 15.5848H6.85104C5.84788 15.6684 4.97012 14.9996 4.88652 13.9964L4.59393 11.2795Z" fill="url(#paint4_linear_17_124)"/>
<path d="M4.59393 11.2795C4.46854 10.3182 5.17911 9.44042 6.18227 9.31502H6.22406C7.22722 9.23143 8.10498 9.9002 8.18858 10.9034L8.48117 13.6202C8.60656 14.5816 7.89599 15.4594 6.89284 15.5848H6.85104C5.84788 15.6684 4.97012 14.9996 4.88652 13.9964L4.59393 11.2795" stroke="white" stroke-width="0.5"/>
<path d="M2.91507 16.9647C3.91823 16.8393 4.58701 16.0034 4.50341 15.0002L4.21082 12.2833C4.16902 12.0325 4.04363 11.7399 3.91823 11.4891C4.54521 11.7817 4.7542 12.2833 4.8378 12.8685L5.13038 15.5854C5.25578 16.5467 4.54521 17.4245 3.58385 17.5081C2.87328 17.5917 2.2045 17.2155 1.87012 16.6721C2.12091 16.8811 2.49709 17.0065 2.91507 16.9647Z" fill="white"/>
<path d="M6.25355 15.0001C7.25671 14.8747 7.96728 14.0387 7.84188 13.0773L7.5493 10.3605C7.5075 10.1097 7.3821 9.77528 7.25671 9.56628C7.84188 9.90067 8.09267 10.4022 8.17627 10.9874L8.46886 13.7043C8.59425 14.6657 7.88368 15.5016 6.88052 15.627H6.83873C6.12816 15.7106 5.45939 15.3344 5.125 14.7911C5.45939 14.9583 5.83557 15.0419 6.25355 15.0001Z" fill="white"/>
<path d="M13.4924 16.8807C11.486 15.9193 6.93003 17.5913 7.84959 21.7711C7.84959 17.4241 11.7786 16.6717 13.4924 16.8807Z" fill="white"/>
<path d="M12.7349 12.5755C11.272 11.6977 11.0212 13.0771 8.5551 13.1607C7.46835 13.2025 7.00857 15.4178 8.6387 16.2119C10.8958 17.3405 11.063 15.7522 11.6482 16.3791C12.2333 17.0479 12.7767 17.1733 13.2783 17.9257C13.6545 18.469 16.455 17.6331 16.7476 16.5045C17.2909 14.2892 14.992 13.9548 12.7349 12.5755Z" fill="white"/>
<path d="M12.9129 12.9515C11.4082 12.0737 11.1156 13.4531 8.56588 13.5367C7.43732 13.5785 6.93574 15.8774 8.64947 16.7133C10.9902 17.8837 11.1992 16.2117 11.7425 16.8805C12.3695 17.5493 12.9129 17.7165 13.4563 18.5106C13.8325 19.0958 12.8293 21.2693 12.8293 21.2693C12.8293 21.2693 15.7134 23.3174 16.2986 22.1471C17.3853 19.9736 17.0927 18.3017 17.0509 17.0477C16.9673 14.08 15.2954 14.3726 12.9129 12.9515Z" fill="url(#paint5_linear_17_124)"/>
<path d="M12.9129 12.9515C11.4082 12.0737 11.1156 13.4531 8.56588 13.5367C7.43732 13.5785 6.93574 15.8774 8.64947 16.7133C10.9902 17.8837 11.1992 16.2117 11.7425 16.8805C12.3695 17.5493 12.9129 17.7165 13.4563 18.5106C13.8325 19.0958 12.8293 21.2693 12.8293 21.2693C12.8293 21.2693 15.7134 23.3174 16.2986 22.1471C17.3853 19.9736 17.0927 18.3017 17.0509 17.0477C16.9673 14.08 15.2954 14.3726 12.9129 12.9515" stroke="white" stroke-width="0.5"/>
</g>
<defs>
<linearGradient id="paint0_linear_17_124" x1="12.3089" y1="-0.436328" x2="20.7813" y2="0.709098" gradientUnits="userSpaceOnUse">
<stop stop-color="#C54A92"/>
<stop offset="1" stop-color="#2E62EB"/>
</linearGradient>
<linearGradient id="paint1_linear_17_124" x1="2.89843" y1="10.6952" x2="22.8266" y2="18.1003" gradientUnits="userSpaceOnUse">
<stop stop-color="#C54A92"/>
<stop offset="1" stop-color="#2E62EB"/>
</linearGradient>
<linearGradient id="paint2_linear_17_124" x1="7.04562" y1="-0.640846" x2="14.9306" y2="0.341939" gradientUnits="userSpaceOnUse">
<stop stop-color="#C54A92"/>
<stop offset="1" stop-color="#2E62EB"/>
</linearGradient>
<linearGradient id="paint3_linear_17_124" x1="1.56074" y1="10.7027" x2="6.88492" y2="11.7626" gradientUnits="userSpaceOnUse">
<stop stop-color="#C54A92"/>
<stop offset="1" stop-color="#2E62EB"/>
</linearGradient>
<linearGradient id="paint4_linear_17_124" x1="4.94257" y1="8.73825" x2="10.2668" y2="9.79814" gradientUnits="userSpaceOnUse">
<stop stop-color="#C54A92"/>
<stop offset="1" stop-color="#2E62EB"/>
</linearGradient>
<linearGradient id="paint5_linear_17_124" x1="8.4243" y1="11.7675" x2="20.7749" y2="15.6062" gradientUnits="userSpaceOnUse">
<stop stop-color="#C54A92"/>
<stop offset="1" stop-color="#2E62EB"/>
</linearGradient>
<clipPath id="clip0_17_124">
<rect width="19" height="26" fill="white"/>
</clipPath>
</defs>
</svg>
